<svg width="36" height="36" viewBox="0 0 36 36" fill="none" xmlns="http://www.w3.org/2000/svg">
<path d="M26.3296 10.7969C30.0075 10.7969 33 13.9077 33 17.7312V25.3313C33 29.1454 30.015 32.25 26.3446 32.25H14.9237C14.2862 32.25 13.7702 31.7105 13.7702 31.0493C13.7702 30.3851 14.2862 29.8471 14.9237 29.8471H26.3446C28.74 29.8471 30.69 27.8215 30.69 25.3313V17.7312C30.69 15.2316 28.734 13.1982 26.3296 13.1982H24.9331C24.2956 13.1982 23.7796 12.6618 23.7796 11.9976C23.7796 11.3349 24.2956 10.7969 24.9331 10.7969H26.3296ZM11.0669 10.7977C11.7044 10.7977 12.2219 11.3356 12.2219 11.9983C12.2219 12.6611 11.7044 13.199 11.0669 13.199H9.65543C7.25996 13.199 5.30998 15.2261 5.30998 17.7148V25.3149C5.30998 27.8145 7.26596 29.8479 9.67043 29.8479C10.3079 29.8479 10.8254 30.3858 10.8254 31.0485C10.8254 31.7113 10.3079 32.2492 9.67043 32.2492C5.99247 32.2492 3 29.1384 3 25.3149L3 17.7148C3 13.9007 5.98497 10.7977 9.65543 10.7977H11.0669ZM17.9997 3.75C18.6372 3.75 19.1562 4.26496 19.1562 4.89933V22.8319C19.1562 23.2976 18.8742 23.717 18.4407 23.8946C18.0087 24.0722 17.5107 23.9722 17.1807 23.6439L12.8188 19.2824C12.5953 19.0585 12.4828 18.7644 12.4828 18.4704C12.4828 18.1763 12.5953 17.8808 12.8218 17.6569C13.2747 17.2091 14.0052 17.2106 14.4552 17.6599L16.8447 20.0481V4.89933C16.8447 4.26496 17.3622 3.75 17.9997 3.75ZM21.5418 17.6626C21.9903 17.2118 22.7208 17.2073 23.1752 17.6536C23.6297 18.0984 23.6327 18.8253 23.1842 19.2791L22.0923 20.3792C21.6453 20.8299 20.9133 20.8344 20.4603 20.3866C20.2308 20.1627 20.1168 19.8672 20.1168 19.5702C20.1168 19.2791 20.2278 18.9865 20.4513 18.7611L21.5418 17.6626Z" fill="#446DF6"/>
</svg>
